<?xml version="1.0" encoding="UTF-8"?><svg id="Layer_1" xmlns="http://www.w3.org/2000/svg" viewBox="0 0 61.86 61.86"><defs><style>.cls-1{fill:#388d43;}</style></defs><path class="cls-1" d="M53.87,61.86H8c-4.41,0-8-3.59-8-8V8C0,3.59,3.59,0,8,0H53.87c4.41,0,8,3.59,8,8V53.87c0,4.41-3.59,8-8,8ZM8,2c-3.31,0-6,2.69-6,6V53.87c0,3.31,2.69,6,6,6H53.87c3.31,0,6-2.69,6-6V8c0-3.31-2.69-6-6-6H8Z"/><g><g><path class="cls-1" d="M43.63,23.67v22.38h-4.41c-2.65,0-4.81,2.16-4.81,4.81v3.89H13.4c-.84,0-1.51-.68-1.51-1.52V16.88c0-.84,.68-1.52,1.51-1.52h18.7v-1.89H13.4c-1.88,0-3.4,1.53-3.4,3.4V53.23c0,1.88,1.53,3.4,3.4,3.4h21.95c.23,0,.44-.09,.6-.22h0c.2,0,.4-.08,.55-.22l8.62-8.13c.16-.15,.24-.36,.25-.58,.09-.14,.14-.31,.14-.48V23.65l-1.89,.02Zm-6.86,30.07v-3.12c0-1.29,1.05-2.34,2.34-2.34h3.46l-5.79,5.46Z"/><path class="cls-1" d="M17.35,26.03h20.81c.52,0,.95-.42,.95-.95v-1.69c0-.52-.42-.94-.95-.94H17.35c-.52,0-.94,.42-.94,.94v1.69c0,.52,.42,.95,.94,.95Zm.19-2.45h20.43v1.32H17.54v-1.32Z"/><path class="cls-1" d="M17.35,31.96h20.81c.52,0,.95-.42,.95-.95v-1.69c0-.52-.42-.94-.95-.94H17.35c-.52,0-.94,.42-.94,.94v1.69c0,.52,.42,.95,.94,.95Zm.19-2.45h20.43v1.32H17.54v-1.32Z"/><path class="cls-1" d="M39.11,36.94v-1.69c0-.52-.42-.95-.95-.95H17.35c-.52,0-.94,.42-.94,.95v1.69c0,.52,.42,.94,.94,.94h20.81c.52,0,.95-.42,.95-.94Zm-1.13-.19H17.54v-1.32h20.43v1.32Z"/></g><g><path class="cls-1" d="M49.92,6.86c-3.38-4.16-9.51-4.8-13.67-1.42-2.02,1.64-3.27,3.96-3.54,6.54-.27,2.58,.49,5.11,2.12,7.13,1.64,2.02,3.96,3.27,6.54,3.54,.34,.04,.68,.05,1.02,.05,1.42,0,2.81-.31,4.09-.91l6.6,8.12c.13,.16,.31,.24,.5,.24,.14,0,.29-.05,.41-.14l2.62-2.13c.13-.11,.22-.26,.23-.43,.02-.17-.03-.34-.14-.47l-6.59-8.11c1.07-1.4,1.74-3.08,1.93-4.88,.27-2.58-.49-5.11-2.12-7.13Zm.84,7c-.23,2.24-1.32,4.25-3.07,5.67-1.75,1.42-3.94,2.08-6.18,1.84-2.24-.23-4.26-1.32-5.67-3.07-1.42-1.75-2.07-3.94-1.84-6.18,.23-2.24,1.32-4.26,3.07-5.67,1.56-1.27,3.44-1.88,5.31-1.88,2.45,0,4.89,1.06,6.55,3.11,1.42,1.75,2.07,3.94,1.84,6.18Zm2.91,14.75l-6.05-7.44c.3-.19,.59-.4,.88-.63,.26-.21,.51-.44,.75-.68l6.04,7.44-1.62,1.32Z"/><path class="cls-1" d="M43.11,5.91c-1.89-.2-3.74,.36-5.22,1.55-1.48,1.2-2.4,2.9-2.59,4.79-.2,1.89,.36,3.74,1.55,5.22,1.4,1.73,3.46,2.63,5.53,2.63,1.58,0,3.16-.52,4.48-1.59,3.05-2.47,3.51-6.96,1.04-10.01-1.2-1.48-2.9-2.4-4.79-2.59Zm2.94,11.6c-2.49,2.03-6.17,1.64-8.19-.85-.98-1.21-1.43-2.73-1.27-4.27,.16-1.55,.91-2.94,2.12-3.92,1.05-.85,2.33-1.3,3.66-1.3,.2,0,.41,.01,.61,.03,1.55,.16,2.94,.91,3.92,2.12,2.03,2.49,1.64,6.17-.85,8.19Z"/></g></g></svg>