<?xml version="1.0" encoding="UTF-8"?><svg id="Layer_1" xmlns="http://www.w3.org/2000/svg" viewBox="0 0 61.86 61.86"><defs><style>.cls-1{fill:#388d43;}</style></defs><path class="cls-1" d="M53.87,61.86H8c-4.41,0-8-3.59-8-8V8C0,3.59,3.59,0,8,0H53.87c4.41,0,8,3.59,8,8V53.87c0,4.41-3.59,8-8,8ZM8,2c-3.31,0-6,2.69-6,6V53.87c0,3.31,2.69,6,6,6H53.87c3.31,0,6-2.69,6-6V8c0-3.31-2.69-6-6-6H8Z"/><g><path class="cls-1" d="M40.43,55.67h0c.23,0,.46-.09,.64-.25l9.99-9.42c.19-.18,.28-.42,.28-.67,.1-.16,.16-.36,.16-.56V9.88c0-2.18-1.77-3.94-3.94-3.94H14.3c-2.17,0-3.94,1.77-3.94,3.94V51.99c0,2.18,1.77,3.94,3.94,3.94h25.43c.27,0,.51-.1,.7-.26Zm.94-3.09v-3.62c0-1.49,1.21-2.71,2.71-2.71h4l-6.71,6.33Zm-2.73,1.16H14.3c-.97,0-1.75-.79-1.75-1.76V9.88c0-.97,.79-1.76,1.75-1.76H47.56c.97,0,1.75,.79,1.75,1.76V43.67h-5.11c-3.07,0-5.57,2.5-5.57,5.57v4.5Z"/><path class="cls-1" d="M18.88,20.48h24.11c.61,0,1.1-.49,1.1-1.09v-1.96c0-.61-.49-1.09-1.1-1.09H18.88c-.6,0-1.09,.49-1.09,1.09v1.96c0,.6,.49,1.09,1.09,1.09Zm.22-2.84h23.67v1.52H19.1v-1.52Z"/><path class="cls-1" d="M18.88,27.35h24.11c.61,0,1.1-.49,1.1-1.09v-1.96c0-.6-.49-1.09-1.1-1.09H18.88c-.6,0-1.09,.49-1.09,1.09v1.96c0,.6,.49,1.09,1.09,1.09Zm.22-2.84h23.67v1.52H19.1v-1.52Z"/><path class="cls-1" d="M44.08,33.11v-1.96c0-.6-.49-1.09-1.1-1.09H18.88c-.6,0-1.09,.49-1.09,1.09v1.96c0,.6,.49,1.09,1.09,1.09h24.11c.61,0,1.1-.49,1.1-1.09Zm-1.31-.22H19.1v-1.52h23.67v1.52Z"/></g></svg>