<?xml version="1.0" encoding="UTF-8"?><svg id="Layer_1" xmlns="http://www.w3.org/2000/svg" viewBox="0 0 61.86 61.86"><defs><style>.cls-1{fill:#388d43;}</style></defs><path class="cls-1" d="M53.87,61.86H8c-4.41,0-8-3.59-8-8V8C0,3.59,3.59,0,8,0H53.87c4.41,0,8,3.59,8,8V53.87c0,4.41-3.59,8-8,8ZM8,2c-3.31,0-6,2.69-6,6V53.87c0,3.31,2.69,6,6,6H53.87c3.31,0,6-2.69,6-6V8c0-3.31-2.69-6-6-6H8Z"/><path class="cls-1" d="M54.42,40.24s0-.07-.02-.11l-2.72-12.66c2.67-2.34,4.35-5.77,4.35-9.59,0-7.04-5.72-12.76-12.76-12.76s-12.76,5.72-12.76,12.76c0,.4,.02,.81,.06,1.2H11.19c-.48,0-.89,.33-.99,.8l-4.35,20.26c-.01,.07-.02,.14-.02,.21v7.19c0,.56,.45,1.01,1.01,1.01H29.12v6.2h-11.44c-.56,0-1.01,.45-1.01,1.01s.45,1.01,1.01,1.01h24.89c.56,0,1.01-.45,1.01-1.01s-.45-1.01-1.01-1.01h-11.43v-6.2h22.28c.56,0,1.01-.45,1.01-1.01v-7.19s0-.07,0-.1h0Zm-2.25-.91h-13.23l-.44-4.74h12.65l1.02,4.74Zm-8.89-19.86c1.71,0,3.1-1.39,3.1-3.1v-3c1.45,1,2.36,2.67,2.36,4.5,0,2.22-1.33,4.21-3.39,5.06-.38,.16-.62,.52-.62,.93v4.66c-.48,.07-.96,.1-1.46,.1s-.98-.03-1.46-.1v-4.66c0-.41-.25-.78-.62-.93-2.06-.85-3.39-2.83-3.39-5.06,0-1.83,.91-3.5,2.36-4.5v3c0,1.71,1.39,3.1,3.11,3.1h0Zm0,11.16c2.42,0,4.69-.68,6.63-1.86l.82,3.8h-12.41l-.29-3.08c1.6,.73,3.38,1.13,5.26,1.13h0Zm0-23.5c5.92,0,10.74,4.82,10.74,10.74,0,4.71-3.04,8.72-7.27,10.17v-3.54c2.46-1.28,4.01-3.82,4.01-6.63,0-3.2-2.04-6.05-5.06-7.08-.31-.11-.65-.06-.91,.13-.26,.19-.42,.49-.42,.82v4.62c0,.6-.49,1.09-1.09,1.09s-1.09-.49-1.09-1.09v-4.62c0-.33-.16-.63-.42-.82-.26-.19-.6-.24-.91-.13-3.03,1.03-5.06,3.88-5.06,7.08,0,2.81,1.55,5.35,4.01,6.63v3.54c-4.22-1.45-7.27-5.46-7.27-10.17,0-5.92,4.82-10.74,10.74-10.74h0Zm-18.23,13.96h5.88c.46,1.75,1.28,3.36,2.38,4.74h-8.7l.44-4.74Zm-.63,6.75h10.91c.18,.14,.37,.29,.56,.42l.4,4.31h-12.31l.44-4.73Zm-.63,6.75h12.69l.44,4.74h-13.57l.44-4.74Zm-11.78-13.5h11.02l-.44,4.74H10.99l1.02-4.74Zm-1.45,6.75h11.84l-.44,4.73H9.54l1.02-4.73Zm-1.45,6.75h12.65l-.44,4.74H8.09l1.02-4.74Zm43.3,11.92H7.85v-5.17H52.41v5.17h0Zm0,0"/></svg>