<?xml version="1.0" encoding="UTF-8"?><svg id="Layer_1" xmlns="http://www.w3.org/2000/svg" viewBox="0 0 61.86 61.86"><defs><style>.cls-1{fill:#388d43;}</style></defs><path class="cls-1" d="M53.87,61.86H8c-4.41,0-8-3.59-8-8V8C0,3.59,3.59,0,8,0H53.87c4.41,0,8,3.59,8,8V53.87c0,4.41-3.59,8-8,8ZM8,2c-3.31,0-6,2.69-6,6V53.87c0,3.31,2.69,6,6,6H53.87c3.31,0,6-2.69,6-6V8c0-3.31-2.69-6-6-6H8Z"/><g><path class="cls-1" d="M41.13,15.1H20.73c-.54,0-.99,.44-.99,.99v9.76c0,.54,.44,.99,.99,.99h20.41c.54,0,.99-.44,.99-.99v-9.76c0-.54-.44-.99-.99-.99h0Zm-.99,9.76H21.71v-7.79h18.44v7.79Zm0,0"/><path class="cls-1" d="M42.41,9.98h-.69v-1.15c0-1.72-1.4-3.12-3.12-3.12h-15.33c-1.72,0-3.12,1.4-3.12,3.12v1.15h-.69c-2.67,0-4.84,2.17-4.84,4.84v10.62c0,3.95,1.03,5.53,2.04,7.05,.98,1.49,1.91,2.9,1.82,7.14,0,0,0,.01,0,.02v11.15c0,2.96,2.41,5.37,5.37,5.37h14.18c2.96,0,5.37-2.41,5.37-5.37v-11.15s0-.01,0-.02c-.09-4.23,.84-5.64,1.82-7.14,1-1.52,2.04-3.1,2.04-7.05V14.82c0-2.67-2.17-4.84-4.84-4.84h0Zm-20.29-1.15c0-.64,.52-1.15,1.15-1.15h15.33c.63,0,1.15,.52,1.15,1.15v1.15H22.12v-1.15Zm23.16,16.61c0,3.37-.79,4.57-1.71,5.97-1.05,1.6-2.24,3.41-2.14,8.25v11.14c0,1.87-1.52,3.4-3.4,3.4h-14.18c-1.87,0-3.4-1.52-3.4-3.4v-11.14c.1-4.83-1.09-6.65-2.14-8.25-.92-1.4-1.71-2.61-1.71-5.97V14.82c0-1.58,1.29-2.87,2.87-2.87h22.95c1.58,0,2.87,1.29,2.87,2.87v10.62Zm0,0"/><path class="cls-1" d="M26.42,35.95c-2.1,0-3.81,1.38-3.81,3.08s1.71,3.08,3.81,3.08,3.81-1.38,3.81-3.08-1.71-3.08-3.81-3.08h0Zm0,4.19c-1.05,0-1.84-.59-1.84-1.11s.79-1.11,1.84-1.11,1.84,.59,1.84,1.11c0,.52-.79,1.11-1.84,1.11h0Zm0,0"/><path class="cls-1" d="M26.42,44.81c-2.1,0-3.81,1.38-3.81,3.08s1.71,3.08,3.81,3.08,3.81-1.38,3.81-3.08-1.71-3.08-3.81-3.08h0Zm0,4.19c-1.05,0-1.84-.59-1.84-1.11s.79-1.11,1.84-1.11,1.84,.59,1.84,1.11c0,.52-.79,1.11-1.84,1.11h0Zm0,0"/><path class="cls-1" d="M35.44,35.95c-2.1,0-3.81,1.38-3.81,3.08s1.71,3.08,3.81,3.08,3.81-1.38,3.81-3.08-1.71-3.08-3.81-3.08h0Zm0,4.19c-1.05,0-1.84-.59-1.84-1.11s.79-1.11,1.84-1.11,1.84,.59,1.84,1.11-.79,1.11-1.84,1.11h0Zm0,0"/><path class="cls-1" d="M35.44,44.81c-2.1,0-3.81,1.38-3.81,3.08s1.71,3.08,3.81,3.08,3.81-1.38,3.81-3.08-1.71-3.08-3.81-3.08h0Zm0,4.19c-1.05,0-1.84-.59-1.84-1.11s.79-1.11,1.84-1.11,1.84,.59,1.84,1.11-.79,1.11-1.84,1.11h0Zm0,0"/><path class="cls-1" d="M36.99,32.73c.54,0,.99-.44,.99-.99s-.44-.99-.99-.99h-12.12c-.54,0-.99,.44-.99,.99s.44,.99,.99,.99h12.12Zm0,0"/></g></svg>