<?xml version="1.0" encoding="UTF-8"?><svg id="Layer_1" xmlns="http://www.w3.org/2000/svg" viewBox="0 0 61.86 61.86"><defs><style>.cls-1{fill:#388d43;}</style></defs><path class="cls-1" d="M53.87,61.86H8c-4.41,0-8-3.59-8-8V8C0,3.59,3.59,0,8,0H53.87c4.41,0,8,3.59,8,8V53.87c0,4.41-3.59,8-8,8ZM8,2c-3.31,0-6,2.69-6,6V53.87c0,3.31,2.69,6,6,6H53.87c3.31,0,6-2.69,6-6V8c0-3.31-2.69-6-6-6H8Z"/><g><path class="cls-1" d="M56.1,35.94l-1.9-.36c-.09-1.04-.3-2.06-.63-3.05l1.6-1.09c.51-.35,.64-1.04,.3-1.55l-2.81-4.14c-.17-.24-.42-.41-.71-.47-.29-.06-.59,0-.83,.17l-1.6,1.09c-.8-.67-1.67-1.25-2.6-1.71l.36-1.9c.12-.6-.28-1.19-.88-1.3l-4.91-.94c-.29-.06-.59,0-.83,.17-.24,.17-.41,.42-.47,.71l-.36,1.9c-1.04,.09-2.06,.3-3.05,.63l-1.09-1.6c-.17-.24-.42-.41-.71-.47-.29-.06-.59,0-.83,.17l-4.14,2.81c-.24,.17-.41,.42-.47,.71-.06,.29,0,.59,.17,.83l1.09,1.6c-.67,.8-1.25,1.67-1.71,2.6l-1.9-.36c-.29-.05-.59,0-.83,.17-.24,.17-.41,.42-.47,.71l-.94,4.91c-.11,.6,.28,1.19,.88,1.3l1.89,.36c.09,1.04,.3,2.06,.63,3.05l-1.6,1.09c-.24,.17-.41,.42-.47,.71-.06,.29,0,.59,.17,.83l2.81,4.14c.17,.24,.42,.41,.71,.47,.29,.06,.59,0,.83-.17l1.6-1.09c.8,.67,1.67,1.25,2.6,1.71l-.36,1.9c-.12,.6,.28,1.19,.88,1.3l4.91,.94c.07,.01,.14,.02,.21,.02,.52,0,.99-.37,1.09-.9l.36-1.9c1.04-.09,2.06-.3,3.05-.63l1.09,1.6c.17,.24,.42,.41,.71,.47,.29,.06,.59,0,.83-.17l4.14-2.81c.51-.35,.64-1.04,.29-1.54l-1.09-1.6c.67-.8,1.25-1.67,1.71-2.6l1.9,.36c.6,.11,1.19-.28,1.3-.88l.94-4.91c.06-.29,0-.59-.17-.83-.17-.24-.42-.41-.71-.47Zm-2.03,4.7l-1.66-.32c-.52-.1-1.03,.18-1.23,.66-.53,1.27-1.28,2.42-2.25,3.42-.37,.38-.42,.96-.12,1.4l.95,1.4-2.3,1.56-.95-1.4c-.3-.44-.86-.6-1.34-.4-1.28,.53-2.63,.81-4,.83-.53,0-.97,.39-1.07,.9l-.32,1.66-2.73-.52,.32-1.66c.1-.52-.18-1.03-.66-1.24-1.27-.53-2.42-1.28-3.42-2.25-.38-.37-.96-.42-1.4-.12l-1.4,.95-1.56-2.3,1.4-.95c.44-.3,.6-.86,.4-1.34-.53-1.28-.81-2.63-.83-4,0-.53-.39-.98-.9-1.07l-1.66-.32,.52-2.73,1.66,.32c.52,.1,1.03-.18,1.24-.66,.53-1.27,1.28-2.42,2.25-3.42,.36-.38,.41-.96,.12-1.4l-.95-1.4,2.3-1.56,.95,1.4c.3,.44,.86,.6,1.34,.4,1.28-.53,2.63-.81,4-.83,.53,0,.98-.39,1.07-.9l.32-1.66,2.73,.52-.32,1.66c-.1,.52,.18,1.03,.66,1.23,1.27,.53,2.42,1.29,3.42,2.25,.38,.37,.96,.42,1.4,.12l1.4-.95,1.56,2.3-1.4,.95c-.44,.3-.6,.86-.4,1.34,.53,1.28,.81,2.63,.83,4,0,.53,.39,.97,.9,1.07l1.66,.32-.52,2.73Z"/><path class="cls-1" d="M42.46,28.88c-2.1-.4-4.22,.04-5.99,1.24-1.77,1.2-2.96,3.02-3.36,5.11-.4,2.1,.04,4.22,1.24,5.99,1.2,1.77,3.01,2.96,5.11,3.36h0c.5,.1,1.01,.14,1.5,.14,3.76,0,7.12-2.67,7.84-6.49,.83-4.33-2.02-8.52-6.35-9.35Zm4.17,8.93c-.29,1.51-1.15,2.82-2.42,3.69-1.27,.87-2.81,1.18-4.32,.89h0c-1.51-.29-2.82-1.15-3.69-2.42-.87-1.27-1.18-2.81-.89-4.32,.29-1.51,1.15-2.82,2.42-3.69,.97-.66,2.08-1,3.23-1,.36,0,.73,.03,1.09,.1,3.12,.6,5.18,3.62,4.58,6.74Z"/><path class="cls-1" d="M15.59,31.05l.21,1.44c.03,.22,.15,.42,.33,.55,.15,.11,.32,.17,.5,.17,.04,0,.08,0,.12,0l3.72-.53c.46-.07,.77-.49,.71-.95l-.21-1.44c.72-.32,1.39-.72,2.01-1.2l1.16,.87c.37,.28,.89,.2,1.17-.17l2.25-3.01c.28-.37,.2-.89-.17-1.17l-1.16-.87c.28-.73,.48-1.49,.58-2.27l1.44-.21c.22-.03,.42-.15,.55-.33,.13-.18,.19-.4,.16-.62l-.53-3.72c-.07-.46-.49-.77-.95-.71l-1.44,.21c-.32-.71-.72-1.39-1.2-2.01l.87-1.16c.13-.18,.19-.4,.16-.62-.03-.22-.15-.42-.33-.55l-3.01-2.25c-.18-.13-.4-.19-.62-.16-.22,.03-.42,.15-.55,.33l-.87,1.16c-.73-.28-1.49-.48-2.27-.58l-.21-1.44c-.07-.46-.49-.77-.95-.71l-3.72,.53c-.22,.03-.42,.15-.55,.33-.13,.18-.19,.4-.16,.62l.21,1.44c-.71,.32-1.39,.72-2.01,1.2l-1.16-.87c-.18-.13-.4-.19-.62-.16-.22,.03-.42,.15-.55,.33l-2.25,3.01c-.13,.18-.19,.4-.16,.62,.03,.22,.15,.42,.33,.55l1.16,.87c-.28,.73-.48,1.49-.58,2.27l-1.44,.21c-.22,.03-.42,.15-.55,.33-.13,.18-.19,.4-.16,.62l.53,3.72c.07,.46,.49,.77,.95,.71l1.44-.21c.32,.72,.72,1.39,1.2,2.01l-.87,1.16c-.13,.18-.19,.4-.16,.62,.03,.22,.15,.42,.33,.55l3.01,2.25c.37,.28,.89,.2,1.17-.17l.87-1.16c.73,.28,1.49,.48,2.27,.58Zm-3.21-2.11l-.76,1.02-1.67-1.25,.76-1.02c.24-.32,.22-.76-.04-1.05-.69-.78-1.22-1.67-1.57-2.64-.13-.37-.51-.6-.9-.54l-1.26,.18-.3-2.07,1.26-.18c.39-.06,.69-.38,.72-.77,.07-1.03,.32-2.03,.76-2.98,.17-.36,.06-.79-.26-1.02l-1.02-.76,1.25-1.67,1.02,.76c.32,.24,.76,.22,1.05-.04,.78-.69,1.67-1.22,2.64-1.57,.37-.13,.6-.51,.54-.9l-.18-1.26,2.07-.3,.18,1.26c.06,.39,.38,.69,.77,.72,1.03,.07,2.03,.32,2.98,.76,.36,.17,.78,.06,1.02-.26l.76-1.02,1.67,1.25-.76,1.02c-.24,.32-.22,.76,.04,1.05,.69,.78,1.22,1.67,1.57,2.64,.14,.37,.51,.6,.9,.54l1.26-.18,.3,2.07-1.26,.18c-.39,.06-.69,.38-.71,.77-.07,1.03-.32,2.03-.76,2.98-.17,.36-.06,.78,.26,1.02l1.02,.76-1.25,1.67-1.02-.76c-.32-.24-.76-.22-1.05,.04-.78,.69-1.67,1.22-2.64,1.57-.37,.13-.6,.51-.54,.9l.18,1.26-2.07,.3-.18-1.26c-.06-.39-.38-.69-.77-.72-1.03-.06-2.03-.32-2.98-.76-.11-.05-.23-.08-.35-.08-.26,0-.51,.12-.67,.33Z"/><path class="cls-1" d="M17.77,27.09c3.28-.47,5.56-3.52,5.09-6.8-.47-3.28-3.52-5.56-6.8-5.09-3.28,.47-5.56,3.52-5.09,6.8,.43,2.99,3,5.15,5.94,5.15,.28,0,.57-.02,.86-.06Zm-5.14-5.33c-.34-2.36,1.31-4.57,3.67-4.91,.21-.03,.41-.04,.62-.04,2.12,0,3.98,1.56,4.29,3.72,.34,2.36-1.31,4.57-3.67,4.91-2.37,.34-4.57-1.31-4.91-3.68Z"/></g></svg>